<svg xmlns="http://www.w3.org/2000/svg" xmlns:xlink="http://www.w3.org/1999/xlink" width="500" zoomAndPan="magnify" viewBox="0 0 375 374.999991" height="500" preserveAspectRatio="xMidYMid meet" version="1.0"><defs><g/></defs><g fill="#302e2e" fill-opacity="1"><g transform="translate(90.08778, 216.240168)"><g><path d="M 10.925781 -136.550781 L 10.925781 0 L 54.074219 0 C 90.671875 0 118.664062 -28.675781 118.664062 -68.277344 C 118.664062 -107.875 90.671875 -136.550781 54.074219 -136.550781 Z M 21.847656 -127.265625 C 22.394531 -132.457031 24.714844 -133.820312 28.949219 -133.820312 C 33.183594 -133.820312 41.785156 -133.957031 45.472656 -133.957031 C 88.621094 -133.957031 106.921875 -99.957031 106.921875 -68.277344 C 106.921875 -36.597656 88.621094 -1.910156 45.472656 -1.910156 C 41.785156 -1.910156 33.183594 -2.046875 28.949219 -2.046875 C 24.035156 -2.046875 21.710938 -3.960938 21.710938 -11.332031 C 21.710938 -28.675781 21.847656 -117.707031 21.847656 -127.265625 Z M 21.847656 -127.265625 "/></g></g></g><g fill="#302e2e" fill-opacity="1"><g transform="translate(159.417431, 265.518967)"><g><path d="M 8.191406 -136.550781 L 8.191406 -124.398438 C 19.390625 -129.316406 42.878906 -133.820312 48.066406 -133.820312 C 52.980469 -133.820312 55.304688 -131.910156 55.304688 -124.535156 L 55.304688 0 L 66.226562 0 L 66.226562 -124.535156 C 66.226562 -131.910156 68.550781 -133.820312 73.464844 -133.820312 C 78.652344 -133.820312 102.140625 -129.316406 113.339844 -124.398438 L 113.339844 -136.550781 Z M 8.191406 -136.550781 "/></g></g></g><g fill="#302e2e" fill-opacity="1"><g transform="translate(99.554877, 241.119904)"><g><path d="M 1 -12.476562 L 1 0 L 4.941406 0 C 8.285156 0 10.84375 -2.621094 10.84375 -6.238281 C 10.84375 -9.859375 8.285156 -12.476562 4.941406 -12.476562 Z M 1.996094 -11.628906 C 2.046875 -12.101562 2.257812 -12.226562 2.644531 -12.226562 C 3.03125 -12.226562 3.816406 -12.242188 4.15625 -12.242188 C 8.097656 -12.242188 9.769531 -9.132812 9.769531 -6.238281 C 9.769531 -3.34375 8.097656 -0.175781 4.15625 -0.175781 C 3.816406 -0.175781 3.03125 -0.1875 2.644531 -0.1875 C 2.195312 -0.1875 1.984375 -0.363281 1.984375 -1.035156 C 1.984375 -2.621094 1.996094 -10.753906 1.996094 -11.628906 Z M 1.996094 -11.628906 "/></g></g></g><g fill="#302e2e" fill-opacity="1"><g transform="translate(111.557463, 241.119904)"><g><path d="M 0.5625 -7.898438 C 0.5625 -7.648438 0.734375 -7.523438 0.859375 -7.523438 C 1.308594 -7.523438 1.074219 -8.386719 2.121094 -8.386719 L 2.96875 -8.386719 C 3.070312 -8.386719 3.257812 -8.410156 3.257812 -8.273438 C 3.257812 -7.722656 0.648438 -6.113281 0.648438 -3.394531 C 0.648438 -1.496094 1.910156 0.25 4.066406 0.25 C 5.488281 0.25 6.363281 -0.347656 7.101562 -1.097656 C 7.210938 -1.210938 7.300781 -1.273438 7.375 -1.273438 C 7.472656 -1.273438 7.523438 -1.160156 7.523438 -0.9375 L 7.523438 0 L 8.523438 0 L 8.523438 -8.632812 L 7.523438 -8.632812 L 7.523438 -3.132812 C 7.523438 -1.796875 6.328125 -0.125 4.605469 -0.125 C 2.796875 -0.125 1.585938 -1.882812 1.585938 -3.867188 C 1.585938 -6.550781 3.679688 -7.8125 3.679688 -8.410156 C 3.679688 -8.523438 3.632812 -8.632812 3.445312 -8.632812 L 2.046875 -8.632812 C 1.433594 -8.632812 0.5625 -8.523438 0.5625 -7.898438 Z M 0.5625 -7.898438 "/></g></g></g><g fill="#302e2e" fill-opacity="1"><g transform="translate(121.538856, 241.119904)"><g><path d="M 0.875 -8.632812 L 0.875 0 L 1.871094 0 L 1.871094 -5.726562 C 1.871094 -7.300781 3.394531 -8.632812 4.917969 -8.632812 C 6.164062 -8.632812 6.699219 -7.773438 6.699219 -6.625 L 6.699219 0 L 7.699219 0 L 7.699219 -5.777344 C 7.699219 -7.238281 9.058594 -8.632812 10.730469 -8.632812 C 11.980469 -8.632812 12.515625 -7.773438 12.515625 -6.625 L 12.515625 0 L 13.511719 0 L 13.511719 -6.4375 C 13.511719 -7.6875 12.753906 -8.882812 10.71875 -8.882812 C 9.582031 -8.882812 8.535156 -8.234375 7.921875 -7.335938 C 7.824219 -7.1875 7.734375 -7.113281 7.671875 -7.113281 C 7.585938 -7.113281 7.523438 -7.199219 7.4375 -7.375 C 7.023438 -8.273438 6.125 -8.882812 4.902344 -8.882812 C 3.816406 -8.882812 2.796875 -8.285156 2.183594 -7.4375 C 2.082031 -7.300781 2.007812 -7.226562 1.960938 -7.226562 C 1.898438 -7.226562 1.871094 -7.324219 1.871094 -7.523438 L 1.871094 -8.632812 Z M 0.875 -8.632812 "/></g></g></g><g fill="#302e2e" fill-opacity="1"><g transform="translate(136.473425, 241.119904)"><g><path d="M 0.875 -8.632812 L 0.875 0 L 1.871094 0 L 1.871094 -5.726562 C 1.871094 -7.300781 3.394531 -8.632812 4.917969 -8.632812 C 6.164062 -8.632812 6.699219 -7.773438 6.699219 -6.625 L 6.699219 0 L 7.699219 0 L 7.699219 -5.777344 C 7.699219 -7.238281 9.058594 -8.632812 10.730469 -8.632812 C 11.980469 -8.632812 12.515625 -7.773438 12.515625 -6.625 L 12.515625 0 L 13.511719 0 L 13.511719 -6.4375 C 13.511719 -7.6875 12.753906 -8.882812 10.71875 -8.882812 C 9.582031 -8.882812 8.535156 -8.234375 7.921875 -7.335938 C 7.824219 -7.1875 7.734375 -7.113281 7.671875 -7.113281 C 7.585938 -7.113281 7.523438 -7.199219 7.4375 -7.375 C 7.023438 -8.273438 6.125 -8.882812 4.902344 -8.882812 C 3.816406 -8.882812 2.796875 -8.285156 2.183594 -7.4375 C 2.082031 -7.300781 2.007812 -7.226562 1.960938 -7.226562 C 1.898438 -7.226562 1.871094 -7.324219 1.871094 -7.523438 L 1.871094 -8.632812 Z M 0.875 -8.632812 "/></g></g></g><g fill="#302e2e" fill-opacity="1"><g transform="translate(151.407991, 241.119904)"><g><path d="M -0.0117188 -8.632812 L 3.429688 0 L 3.707031 0 C 4.082031 0 4.242188 0.238281 4.105469 0.585938 C 3.582031 1.933594 2.65625 3.917969 0.886719 3.917969 L 0.0859375 3.917969 L 0.0859375 4.867188 L 0.648438 4.867188 C 2.996094 4.867188 4.144531 1.199219 4.554688 0 L 8 -8.632812 L 6.886719 -8.632812 L 4.617188 -0.898438 C 4.566406 -0.722656 4.492188 -0.625 4.417969 -0.625 C 4.355469 -0.625 4.265625 -0.710938 4.203125 -0.886719 L 1.109375 -8.632812 Z M -0.0117188 -8.632812 "/></g></g></g><g fill="#302e2e" fill-opacity="1"><g transform="translate(127.350771, 257.215716)"><g><path d="M 0.75 -12.476562 L 0.75 -11.367188 C 1.773438 -11.816406 3.917969 -12.226562 4.390625 -12.226562 C 4.839844 -12.226562 5.054688 -12.054688 5.054688 -11.378906 L 5.054688 0 L 6.050781 0 L 6.050781 -11.378906 C 6.050781 -12.054688 6.265625 -12.226562 6.714844 -12.226562 C 7.1875 -12.226562 9.332031 -11.816406 10.355469 -11.367188 L 10.355469 -12.476562 Z M 0.75 -12.476562 "/></g></g></g><g fill="#302e2e" fill-opacity="1"><g transform="translate(138.991541, 257.215716)"><g><path d="M 4.917969 0.25 C 6.601562 0.25 7.585938 -0.511719 8.160156 -1.710938 L 7.898438 -1.859375 C 7.472656 -0.921875 6.589844 -0.125 5.203125 -0.125 C 3.417969 -0.125 2.222656 -1.308594 1.820312 -3.292969 C 1.746094 -3.644531 1.972656 -3.878906 2.359375 -3.867188 C 2.496094 -3.867188 2.632812 -3.867188 2.796875 -3.867188 C 5.441406 -3.867188 7.9375 -5.214844 7.9375 -7.050781 C 7.9375 -8.324219 6.5 -8.882812 5.214844 -8.882812 C 2.695312 -8.882812 0.625 -6.824219 0.625 -4.34375 C 0.625 -1.523438 2.421875 0.25 4.917969 0.25 Z M 1.695312 -4.714844 C 1.746094 -6.699219 3.007812 -8.632812 5.164062 -8.632812 C 6.089844 -8.632812 6.925781 -8.035156 6.925781 -6.960938 C 6.925781 -5.214844 4.417969 -4.066406 2.78125 -4.066406 C 2.53125 -4.066406 2.320312 -4.09375 2.144531 -4.117188 C 1.882812 -4.15625 1.683594 -4.429688 1.695312 -4.714844 Z M 1.695312 -4.714844 "/></g></g></g><g fill="#302e2e" fill-opacity="1"><g transform="translate(148.124526, 257.215716)"><g><path d="M 1.183594 0 L 3.230469 -3.246094 C 3.332031 -3.40625 3.457031 -3.480469 3.582031 -3.480469 C 3.707031 -3.480469 3.816406 -3.417969 3.929688 -3.269531 L 6.3125 0 L 7.5625 0 L 4.480469 -4.203125 C 4.253906 -4.503906 4.28125 -4.890625 4.53125 -5.179688 L 7.550781 -8.632812 L 6.363281 -8.632812 L 4.328125 -5.402344 C 4.230469 -5.242188 4.105469 -5.164062 3.980469 -5.164062 C 3.855469 -5.164062 3.742188 -5.226562 3.632812 -5.378906 L 1.246094 -8.632812 L 0 -8.632812 L 3.070312 -4.441406 C 3.292969 -4.144531 3.269531 -3.753906 3.019531 -3.46875 L 0 0 Z M 1.183594 0 "/></g></g></g><g fill="#302e2e" fill-opacity="1"><g transform="translate(156.221967, 257.215716)"><g><path d="M 0.25 -8.386719 L 1.324219 -8.386719 C 1.683594 -8.386719 1.695312 -8.324219 1.421875 -8.046875 C 1.121094 -7.75 1.074219 -7.375 1.074219 -6.652344 L 1.074219 0 L 2.070312 0 L 2.070312 -7.375 C 2.070312 -8.0625 2.046875 -8.386719 2.945312 -8.386719 L 2.945312 -8.632812 L 1.960938 -8.632812 C 1.734375 -8.632812 1.371094 -8.734375 1.695312 -9.019531 C 2.121094 -9.394531 2.308594 -9.859375 2.308594 -10.34375 C 2.308594 -10.90625 1.847656 -11.59375 1.046875 -11.59375 C 0.710938 -11.59375 0.25 -11.40625 0.25 -10.957031 C 0.25 -10.792969 0.363281 -10.554688 0.648438 -10.554688 C 1.148438 -10.554688 0.773438 -11.230469 1.359375 -11.230469 C 1.734375 -11.230469 2.046875 -10.804688 2.046875 -10.304688 C 2.046875 -9.621094 1.460938 -8.632812 0.25 -8.632812 Z M 0.25 -8.386719 "/></g></g></g></svg>